<svg xmlns="http://www.w3.org/2000/svg" viewBox="0 0 1200 900"><defs><linearGradient id="bg" x1="0" y1="0" x2="1" y2="1"><stop offset="0%" stop-color="#061b4b"/><stop offset="50%" stop-color="#0b4f8a"/><stop offset="100%" stop-color="#00bfff"/></linearGradient><linearGradient id="card" x1="0" y1="0" x2="1" y2="1"><stop offset="0%" stop-color="#ffffff" stop-opacity=".95"/><stop offset="100%" stop-color="#dbeafe" stop-opacity=".92"/></linearGradient></defs><rect width="1200" height="900" rx="56" fill="url(#bg)"/><circle cx="940" cy="180" r="120" fill="#7fffd4" opacity=".14"/><circle cx="240" cy="760" r="180" fill="#ffffff" opacity=".08"/><rect x="118" y="116" width="964" height="668" rx="34" fill="#081c4b" opacity=".72" stroke="#3bc9ff" stroke-opacity=".35"/><rect x="180" y="180" width="520" height="320" rx="26" fill="url(#card)"/><path d="M230 422h420" stroke="#dbeafe" stroke-width="14" stroke-linecap="round"/><path d="M238 388c68-94 132-40 194-100 54-52 90-42 138 10 28 30 58 44 92 54" fill="none" stroke="#0ea5e9" stroke-width="14" stroke-linecap="round"/><circle cx="238" cy="388" r="9" fill="#0ea5e9"/><circle cx="432" cy="288" r="9" fill="#0ea5e9"/><circle cx="662" cy="352" r="9" fill="#0ea5e9"/><rect x="760" y="210" width="222" height="116" rx="20" fill="#ffffff" opacity=".92"/><text x="790" y="258" font-family="Arial, sans-serif" font-size="34" font-weight="700" fill="#0b2a7a">KPIs</text><text x="790" y="298" font-family="Arial, sans-serif" font-size="22" fill="#334155">en tiempo real</text><rect x="760" y="356" width="262" height="168" rx="22" fill="#ffffff" opacity=".9"/><path d="M804 484V404m62 80v-50m62 50V386" stroke="#10b981" stroke-width="18" stroke-linecap="round"/><text x="782" y="584" font-family="Arial, sans-serif" font-size="28" font-weight="700" fill="#ffffff">Dashboards • Forecast • BI</text></svg>