<svg xmlns="http://www.w3.org/2000/svg" viewBox="0 0 64 64" role="img" aria-labelledby="title desc">
  <title id="title">Power Automate</title>
  <desc id="desc">Icono vectorial estilizado para Power Automate</desc>
  <defs>
    <linearGradient id="g1" x1="0%" y1="0%" x2="100%" y2="100%">
      <stop offset="0%" stop-color="#39A0FF"/>
      <stop offset="100%" stop-color="#0078D4"/>
    </linearGradient>
    <linearGradient id="g2" x1="0%" y1="100%" x2="100%" y2="0%">
      <stop offset="0%" stop-color="#0A5FB4"/>
      <stop offset="100%" stop-color="#004E9C"/>
    </linearGradient>
  </defs>
  <rect width="64" height="64" rx="14" fill="#F8FBFF"/>
  <path d="M10 18.5c0-1.9 1.6-3.5 3.5-3.5H35l-8.3 9.2H13.5c-1.9 0-3.5-1.6-3.5-3.7z" fill="url(#g1)"/>
  <path d="M27.5 24.2 35 15h15.6c2.9 0 4.3 3.5 2.2 5.5L40.5 33 27.5 24.2z" fill="#1E88E5"/>
  <path d="M23.8 28.6 37.1 37 24 49.3c-2.2 2.1-5.8.5-5.8-2.5V31.6c0-1.3 1.3-2.2 2.5-1.5l3.1-1.5z" fill="url(#g2)"/>
  <path d="M37.1 37 50 49.1c2.2 2 5.8.4 5.8-2.6V31.4c0-3-3.5-4.6-5.8-2.6L37.1 37z" fill="#0078D4"/>
</svg>
