<svg xmlns="http://www.w3.org/2000/svg" viewBox="0 0 64 64"><rect width="64" height="64" rx="16" fill="#ffffff"/><path d="M50 33.2c0-1.6-.1-2.8-.4-4.1H32v7.8h10.3c-.2 1.9-1.5 4.7-4.3 6.6l6.6 5.1c3.9-3.6 6.1-8.8 6.1-15.4Z" fill="#4285F4"/><path d="M32 51c5 0 9.2-1.6 12.3-4.4l-6.6-5.1c-1.8 1.2-4 2.1-5.7 2.1-4.8 0-8.8-3.2-10.2-7.5l-6.8 5.2C18.2 47 24.6 51 32 51Z" fill="#34A853"/><path d="M21.8 36.1a11.6 11.6 0 0 1 0-8.2l-6.8-5.2A19.5 19.5 0 0 0 13 32c0 3.1.7 6.1 2 8.9l6.8-4.8Z" fill="#FBBC05"/><path d="M32 20.4c3.1 0 5.8 1.1 7.9 3.1l5.8-5.7C41.2 13.7 37 12 32 12c-7.4 0-13.8 4-17 9.9l6.8 5.2c1.4-4.3 5.4-7.5 10.2-7.5Z" fill="#EA4335"/></svg>